# xmcd
#
# Track frame offsets:
# 150
# 9366
# 32226
# 63108
# 72971
# 80290
# 100076
# 122376
# 137153
# 171165
#
# Disc length: 2462 seconds
#
#
# Revision: 1
# Processed by: cddbd v1.5.2PL0 Copyright (c) Steve Scherf et al.
# Submitted via: FreeRIP 2.96 
#
DISCID=76099c0a
DTITLE=Dirtfoot - Entertain Me
DYEAR=2006
DGENRE=Revival
TTITLE0=Rest My Head
TTITLE1=Devil Don't Care
TTITLE2=Back of a Stranger
TTITLE3=Entertain Me
TTITLE4=Time to Be Your Friend Now
TTITLE5=My Girl
TTITLE6=A Little Bit of Rum
TTITLE7=Sees Me on TV
TTITLE8=Pretty Pretty
TTITLE9=Bathroom Sink
EXTD=Bayou Grunge
EXTT0=
EXTT1=
EXTT2=
EXTT3=
EXTT4=
EXTT5=
EXTT6=
EXTT7=
EXTT8=
EXTT9=
PLAYORDER=
